# xmcd
#
# Track frame offsets:
#	150
#	17027
#	31403
#	53327
#	72323
#	89839
#	108631
#	124151
#	146556
#	158633
#
# Disc length: 2490 seconds
#
# Revision: 1
# Processed by: cddbd v1.5.2PL0 Copyright (c) Steve Scherf et al.
# Submitted via: audiograbber 1.83.01
#
DISCID=8609b80a
DTITLE=Rufus - Rufus
DYEAR=1973
DGENRE=Funk
TTITLE0=Slip 'N' Slide
TTITLE1=Keep It Comin'
TTITLE2=There's No Tellin'
TTITLE3=Maybe Your Baby
TTITLE4=I Finally Found You
TTITLE5=Feel Good
TTITLE6=Satisfied
TTITLE7=Haulin' Coal
TTITLE8=Whoever's Thrilling You (Is Killing Me)
TTITLE9=Love The One You're With - Sit Yourself Down (Medley)
EXTD=YEAR: 1973\nfeat. Chaka Khan
EXTT0=
EXTT1=
EXTT2=
EXTT3=
EXTT4=
EXTT5=
EXTT6=
EXTT7=
EXTT8=
EXTT9=
PLAYORDER=
